<svg width="10" height="17" viewBox="0 0 10 17" fill="none" xmlns="http://www.w3.org/2000/svg">
<path fill-rule="evenodd" clip-rule="evenodd" d="M8.88864 -9.7158e-08C9.17308 -7.22918e-08 9.45752 0.10413 9.67418 0.311327C10.1086 0.726784 10.1086 1.39832 9.67418 1.81377L2.68215 8.49934L9.67418 15.186C10.1075 15.6014 10.1075 16.273 9.67418 16.6884C9.23974 17.1039 8.53643 17.1039 8.102 16.6884L0.325545 9.25056C0.116662 9.05186 -1.18891e-06 8.78197 -1.1642e-06 8.49934C-1.13949e-06 8.2167 0.116662 7.94681 0.325545 7.74811L8.10311 0.311327C8.31977 0.10413 8.60421 -1.22024e-07 8.88864 -9.7158e-08Z" fill="white"/>
</svg>
